<svg width="29" height="40" viewBox="0 0 29 40" fill="none" xmlns="http://www.w3.org/2000/svg">
<g id="1093169 1">
<g id="Group">
<path id="Vector" d="M13.518 0.034379C8.85303 0.359379 4.65271 2.89375 2.18303 6.87813C1.45959 8.04375 0.892062 9.3375 0.53346 10.6406C-0.417616 14.1 -0.0808416 17.7594 1.48453 20.9375C2.08013 22.1469 2.64453 23 3.59249 24.125C3.69851 24.2531 5.94056 27.175 8.56927 30.6156C11.4318 34.3625 13.4182 36.9344 13.5211 37.0281C14.1011 37.5594 14.8994 37.5594 15.4794 37.0281C15.5823 36.9344 17.5686 34.3625 20.4312 30.6156C23.0599 27.175 25.302 24.2531 25.408 24.125C26.3559 23 26.9203 22.1469 27.5159 20.9375C29.2809 17.3531 29.4773 13.1188 28.0585 9.39063C26.9578 6.50625 25.0431 4.1125 22.4518 2.38438C19.8793 0.668754 16.6394 -0.181246 13.518 0.034379ZM15.2611 7.07813C15.9596 7.16875 16.5022 7.33125 17.1352 7.64063C18.8596 8.47813 20.0383 10.0031 20.4468 11.9344C20.5247 12.2969 20.531 12.3875 20.5341 13.0781C20.5341 13.9125 20.5029 14.1563 20.3158 14.8125C19.8138 16.5656 18.4885 18.0375 16.7922 18.7281C16.1654 18.9844 15.654 19.1031 14.9461 19.1625C14.0294 19.2406 13.097 19.0906 12.2083 18.7281C10.512 18.0375 9.18669 16.5656 8.68464 14.8125C8.49755 14.1563 8.46636 13.9125 8.46636 13.0781C8.46948 12.3875 8.47572 12.2969 8.55367 11.9344C8.90292 10.2875 9.8197 8.91875 11.1793 8.02188C11.7312 7.65938 12.542 7.3125 13.1656 7.175C13.8173 7.03125 14.6218 6.99375 15.2611 7.07813Z" fill="#CC0000"/>
</g>
</g>
</svg>
