<svg width="20" height="20" viewBox="0 0 20 20" fill="none" xmlns="http://www.w3.org/2000/svg">
<g id="info 1" clip-path="url(#clip0_14_884)">
<g id="Group">
<path id="Vector" d="M9.52346 0.00934982C7.40784 0.121851 5.41252 0.871851 3.79065 2.16248C3.36409 2.5031 2.81096 3.0281 2.47502 3.41404C1.19221 4.88904 0.378149 6.65935 0.103149 8.5781C0.0265869 9.10779 0.00939941 9.37029 0.00939941 9.99998C0.00939941 10.6297 0.0265869 10.8922 0.103149 11.4219C0.379712 13.3515 1.19221 15.1156 2.48909 16.6C2.69534 16.8359 3.18596 17.325 3.41409 17.525C4.88909 18.8078 6.6594 19.6219 8.57815 19.8969C9.10784 19.9734 9.37034 19.9906 10 19.9906C10.6297 19.9906 10.8922 19.9734 11.4219 19.8969C13.1844 19.6437 14.8469 18.9265 16.2266 17.8234C16.8063 17.3594 17.375 16.789 17.8375 16.2094C18.8172 14.9781 19.511 13.4781 19.811 11.9375C19.9453 11.2515 19.9907 10.7578 19.9907 9.99998C19.9907 9.37029 19.9735 9.10779 19.8969 8.5781C19.6219 6.65935 18.8078 4.88904 17.525 3.41404C17.325 3.18591 16.836 2.69529 16.6 2.48904C14.9766 1.07185 13.0344 0.239038 10.8828 0.0390377C10.6297 0.0156002 9.76409 -0.00314903 9.52346 0.00934982ZM10.4531 2.92966C10.8203 3.03123 11.1766 3.28279 11.3703 3.57966C11.5141 3.79997 11.5797 4.04216 11.5797 4.35154C11.5813 4.6281 11.536 4.82341 11.4203 5.05154C11.2328 5.42341 10.936 5.67498 10.5516 5.7906C10.4266 5.8281 10.3828 5.83279 10.0938 5.8406C9.89534 5.84373 9.72815 5.8406 9.6594 5.82966C9.21565 5.76091 8.75315 5.4281 8.55627 5.03591C8.49377 4.91091 8.43752 4.69685 8.42346 4.52654C8.3844 4.0531 8.5344 3.6406 8.87502 3.29529C9.05002 3.11716 9.26721 2.99529 9.52346 2.93122C9.67034 2.89529 9.69221 2.89372 10.0313 2.89841C10.2813 2.90154 10.3735 2.90779 10.4531 2.92966ZM11.5 11.6015V16.0469H12.0938H12.6875V16.5781V17.1094H10H7.31252V16.5781V16.0469H7.90627H8.50002V12.1328V8.21873H7.90627H7.31252V7.68748V7.15623H9.40627H11.5V11.6015Z" fill="#01498B"/>
</g>
</g>
<defs>
<clipPath id="clip0_14_884">
<rect width="20" height="20" fill="white"/>
</clipPath>
</defs>
</svg>
