<svg width="128" height="128" viewBox="0 0 128 128" fill="none" xmlns="http://www.w3.org/2000/svg">
<g id="Logo-kafelek 1">
<g id="Group">
<path id="Vector" fill-rule="evenodd" clip-rule="evenodd" d="M65.6457 21.76C65.4018 21.8819 65.1582 22.0038 64.9143 22.1257C64.771 20.9475 64.9538 19.8504 65.4629 18.8343C65.6446 19.802 65.7057 20.7772 65.6457 21.76Z" fill="#D95756"/>
</g>
<g id="Group_2">
<path id="Vector_2" fill-rule="evenodd" clip-rule="evenodd" d="M65.6457 21.76C65.6457 22.3695 65.6457 22.979 65.6457 23.5886C65.4018 23.5886 65.1582 23.5886 64.9143 23.5886C64.9143 23.101 64.9143 22.6133 64.9143 22.1257C65.1582 22.0038 65.4018 21.8819 65.6457 21.76Z" fill="#D82B2D"/>
</g>
<g id="Group_3">
<path id="Vector_3" fill-rule="evenodd" clip-rule="evenodd" d="M64.9143 23.5886C65.1582 23.5886 65.4018 23.5886 65.6457 23.5886C66.8094 30.6728 69.1865 37.3775 72.7771 43.7028C76.5282 49.8655 80.5511 55.8391 84.8457 61.6228C88.7285 67.0735 91.5324 73.0467 93.2571 79.5428C95.9331 96.075 89.7766 107.961 74.7885 115.2C60.1556 119.789 48.1481 116.071 38.7657 104.046C32.5888 94.0869 31.8574 83.7252 36.5714 72.96C41.0829 64.7921 46.4468 57.2343 52.6628 50.2857C57.2514 44.3999 60.7868 37.9388 63.2685 30.9028C63.8899 28.465 64.4385 26.0269 64.9143 23.5886ZM59.7943 60.5257C73.009 59.4187 82.4565 64.7826 88.1371 76.6171C89.4339 79.7828 90.1043 83.0742 90.1485 86.4914C72.5943 86.4914 55.04 86.4914 37.4857 86.4914C38.5422 72.2885 45.9783 63.6332 59.7943 60.5257Z" fill="#FD0000"/>
</g>
</g>
</svg>
