<svg width="20" height="17" viewBox="0 0 20 17" fill="none" xmlns="http://www.w3.org/2000/svg">
<g id="normal_u20 1" clip-path="url(#clip0_9_96)">
<g id="Group">
<path id="Vector" d="M18.8309 7.46363C19.4144 7.46406 19.8515 7.93023 19.8515 8.5C19.8515 9.07192 19.3764 9.53637 18.7913 9.53637H3.81349L9.6732 15.0009C10.0982 15.3961 10.1134 16.0546 9.70908 16.4659C9.30477 16.88 8.63428 16.8949 8.21037 16.501L0.438632 9.24943C0.227669 9.05681 0.109009 8.78488 0.109009 8.5C0.109009 8.21511 0.227669 7.9475 0.437418 7.74894L8.20916 0.497379C8.63108 0.105017 9.30228 0.119693 9.70853 0.534068C10.1128 0.944127 10.0976 1.60238 9.67265 1.99906L3.81294 7.46363H18.8309Z" fill="black"/>
</g>
</g>
<defs>
<clipPath id="clip0_9_96">
<rect width="20" height="17" fill="white"/>
</clipPath>
</defs>
</svg>
