<svg width="32" height="32" viewBox="0 0 32 32" fill="none" xmlns="http://www.w3.org/2000/svg">
<g id="notification-bell-svgrepo-com 1" clip-path="url(#clip0_9_210)">
<g id="Group">
<g id="Group_2">
<g id="Group_3">
<path id="Vector" d="M29.8096 25.9031C26.409 24.4057 26.2796 17.9786 26.2771 17.8165V13.5046C26.2771 9.35472 23.6762 5.78624 19.9802 4.26682C19.9723 2.13324 18.19 0.399902 16.0001 0.399902C13.8101 0.399902 12.0279 2.13334 12.0199 4.26672C8.32411 5.78614 5.72317 9.35462 5.72317 13.5045V17.8164C5.72076 17.9785 5.5913 24.4056 2.19056 25.903C1.80316 26.0736 1.59024 26.4848 1.67981 26.89C1.76928 27.2952 2.13681 27.5846 2.56196 27.5846H11.1832C11.3599 28.5326 11.8196 29.4144 12.5227 30.1287C13.4566 31.0774 14.6915 31.5998 15.9999 31.5998C17.3084 31.5998 18.5434 31.0774 19.4772 30.1287C20.1804 29.4144 20.6401 28.5325 20.8167 27.5846H29.4379C29.8631 27.5846 30.2306 27.2953 30.3201 26.89C30.4098 26.4848 30.197 26.0737 29.8096 25.9031ZM25.3299 22.8241C25.6874 23.8808 26.1936 24.9421 26.9114 25.8251H5.08866C5.80636 24.9422 6.31255 23.881 6.67004 22.8241H25.3299ZM16.0001 2.15949C16.9907 2.15949 17.8282 2.80848 18.0903 3.69309C17.4152 3.55656 16.7161 3.48458 16.0001 3.48458C15.2841 3.48458 14.585 3.55651 13.9099 3.69309C14.172 2.80853 15.0096 2.15949 16.0001 2.15949ZM7.52788 17.8218V13.5045C7.52788 8.94974 11.3285 5.24417 16.0001 5.24417C20.6717 5.24417 24.4723 8.94974 24.4723 13.5045V17.829C24.4735 17.9613 24.4947 19.3522 24.8542 21.0644H7.14581C7.50555 19.3506 7.52678 17.9572 7.52788 17.8218ZM16.0001 29.8404C14.6228 29.8404 13.4207 28.8721 13.0349 27.5847H18.9652C18.5793 28.8721 17.3775 29.8404 16.0001 29.8404Z" fill="#cc0000"/>
<path id="Vector_2" d="M16.0001 6.47852C12.1177 6.47852 8.95917 9.55799 8.95917 13.3432C8.95917 13.8291 9.36319 14.2231 9.86155 14.2231C10.3599 14.2231 10.7639 13.8291 10.7639 13.3432C10.7639 10.5283 13.1128 8.23811 16.0001 8.23811C16.4985 8.23811 16.9025 7.84418 16.9025 7.35829C16.9024 6.87234 16.4984 6.47852 16.0001 6.47852Z" fill="#cc0000"/>
</g>
</g>
</g>
</g>
<defs>
<clipPath id="clip0_9_210">
<rect width="32" height="31.2" fill="cc0000" transform="translate(0 0.399902)"/>
</clipPath>
</defs>
</svg>
